<svg width="437" height="435" fill="none" xmlns="http://www.w3.org/2000/svg"><g filter="url(#a)"><path d="m44.448 80.85 65.376 2.282 6.56-3.775-78.724-2.749 19.565 36.795 3.47-1.997L44.449 80.85Z" fill="url(#b)"/><path d="m427.191 94.215-177.264-6.19V84.02l184.331 6.437-125.054 200.129-2.271-3.919L427.191 94.215Z" fill="url(#c)"/><path d="m110.295 204.69-6.55-3.795 16.668 31.348 2.364-4.078-12.482-23.475Z" fill="url(#d)"/><path d="M184.194 343.673h-4.533l44.304 83.323 52.066-83.323h-4.719l-47.068 75.324-40.05-75.324Z" fill="url(#e)"/></g><g filter="url(#f)"><path d="M248.125 184.092 247.124 6.003 9.004 144.072l121.061 70.036L198.1 98.549l50.025 85.543Z" fill="#fff"/></g><g filter="url(#g)"><path d="M342.172 341.171 197.099 91.046 53.027 341.17h289.145Z" fill="#001"/></g><defs><linearGradient id="b" x1="434.258" y1="76.608" x2="86.541" y2="470.181" gradientUnits="userSpaceOnUse"><stop stop-color="#FF3A75"/><stop offset="1" stop-color="#00D1FF"/></linearGradient><linearGradient id="c" x1="434.258" y1="76.608" x2="86.541" y2="470.181" gradientUnits="userSpaceOnUse"><stop stop-color="#FF3A75"/><stop offset="1" stop-color="#00D1FF"/></linearGradient><linearGradient id="d" x1="434.258" y1="76.608" x2="86.541" y2="470.181" gradientUnits="userSpaceOnUse"><stop stop-color="#FF3A75"/><stop offset="1" stop-color="#00D1FF"/></linearGradient><linearGradient id="e" x1="434.258" y1="76.608" x2="86.541" y2="470.181" gradientUnits="userSpaceOnUse"><stop stop-color="#FF3A75"/><stop offset="1" stop-color="#00D1FF"/></linearGradient><filter id="a" x="31.657" y="76.608" width="404.601" height="358.392" filterUnits="userSpaceOnUse" color-interpolation-filters="sRGB"><feFlood flood-opacity="0" result="BackgroundImageFix"/><feColorMatrix in="SourceAlpha" values="0 0 0 0 0 0 0 0 0 0 0 0 0 0 0 0 0 0 127 0" result="hardAlpha"/><feOffset dx="-2" dy="4"/><feGaussianBlur stdDeviation="2"/><feColorMatrix values="0 0 0 0 0 0 0 0 0 0 0 0 0 0 0 0 0 0 0.32 0"/><feBlend in2="BackgroundImageFix" result="effect1_dropShadow_34_726"/><feBlend in="SourceGraphic" in2="effect1_dropShadow_34_726" result="shape"/></filter><filter id="f" x="0" y="0" width="263.132" height="232.117" filterUnits="userSpaceOnUse" color-interpolation-filters="sRGB"><feFlood flood-opacity="0" result="BackgroundImageFix"/><feColorMatrix in="SourceAlpha" values="0 0 0 0 0 0 0 0 0 0 0 0 0 0 0 0 0 0 127 0" result="hardAlpha"/><feOffset dx="3" dy="6"/><feGaussianBlur stdDeviation="6"/><feColorMatrix values="0 0 0 0 0 0 0 0 0 0 0 0 0 0 0 0 0 0 0.35 0"/><feBlend in2="BackgroundImageFix" result="effect1_dropShadow_34_726"/><feBlend in="SourceGraphic" in2="effect1_dropShadow_34_726" result="shape"/></filter><filter id="g" x="47.024" y="91.046" width="297.149" height="258.13" filterUnits="userSpaceOnUse" color-interpolation-filters="sRGB"><feFlood flood-opacity="0" result="BackgroundImageFix"/><feColorMatrix in="SourceAlpha" values="0 0 0 0 0 0 0 0 0 0 0 0 0 0 0 0 0 0 127 0" result="hardAlpha"/><feOffset dx="-2" dy="4"/><feGaussianBlur stdDeviation="2"/><feColorMatrix values="0 0 0 0 0 0 0 0 0 0 0 0 0 0 0 0 0 0 0.32 0"/><feBlend in2="BackgroundImageFix" result="effect1_dropShadow_34_726"/><feBlend in="SourceGraphic" in2="effect1_dropShadow_34_726" result="shape"/></filter></defs></svg>