<svg xmlns="http://www.w3.org/2000/svg" width="600" height="359" fill="none">
  <g clip-path="url(#clip0)">
    <path fill="#fff" d="M0 0h600v359H0z"/>
    <path fill="#464646" d="M556.214 69.337l-7.965-5.733 8.946-4.034-.981 9.767zM486.491 242.339l4.304 2.357-4.192 2.55-.112-4.907zM352.327 96.712l-3.059-6.697 7.327.699-4.268 5.998zM296.045 249.692l3.161 19.377-18.355-6.95 15.194-12.427z"/>
    <path fill="#D1D1D1" d="M560.145 188.498l4.304 2.357-4.193 2.55-.111-4.907zM556.422 104.457l16.597 10.478-17.37 9.14.773-19.618zM475.982 92.257l-7.965-5.733 8.946-4.034-.981 9.767zM439.708 194.974l-3.424 11.783-8.489-8.858 11.913-2.925zM310.388 58.835l-9.956-7.167 11.182-5.042-1.226 12.209zM241.164 90.688l-5.974-4.3 6.71-3.026-.736 7.326z"/>
    <path fill="#464646" d="M303.898 172.431c1.162 0 2.275.166 3.337.498 1.079.316 2.025.764 2.839 1.345l.573-1.643h3.959v26.944c0 3.503-1.12 6.259-3.362 8.267-2.241 2.026-5.296 3.039-9.164 3.039-1.942 0-3.826-.241-5.653-.723-1.809-.464-3.411-1.12-4.806-1.967l1.793-3.835c1.229.681 2.665 1.229 4.308 1.644 1.644.431 3.196.647 4.657.647 2.374 0 4.209-.606 5.504-1.818 1.294-1.195 1.942-2.913 1.942-5.154v-3.786c-2.075 2.242-4.574 3.362-7.496 3.362-3.669 0-6.507-1.137-8.516-3.411-2.009-2.275-3.013-5.504-3.013-9.687 0-4.35 1.137-7.72 3.411-10.111 2.275-2.407 5.504-3.611 9.687-3.611zm.274 3.985c-2.623 0-4.69.871-6.201 2.614-1.51 1.727-2.266 4.101-2.266 7.123 0 2.822.598 5.005 1.793 6.549 1.212 1.544 2.922 2.316 5.13 2.316 1.694 0 3.179-.465 4.458-1.395 1.278-.929 2.191-2.216 2.739-3.86v-11.828c-.78-.482-1.677-.855-2.69-1.121a11.483 11.483 0 0 0-2.963-.398zm23.085 13.148c0 1.909.398 3.304 1.195 4.184.797.88 2.083 1.32 3.86 1.32a9.276 9.276 0 0 0 4.283-1.046c1.361-.698 2.482-1.636 3.362-2.814v-18.577h4.781v26.222h-3.86l-.622-3.611c-2.308 2.723-5.263 4.076-8.866 4.059-2.921 0-5.146-.797-6.673-2.391-1.511-1.593-2.267-3.918-2.267-6.972v-17.307h4.807v16.933zm30.281-13.248c.913-1.361 1.984-2.39 3.212-3.088 1.229-.697 2.573-1.046 4.034-1.046.98 0 2.117.183 3.412.548l-.872 4.707c-1.66-.332-2.78-.507-3.361-.523-1.461 0-2.673.274-3.636.822-.946.547-1.76 1.436-2.441 2.664v18.453h-4.781v-26.222h3.835l.598 3.685zm19.224 13.248c0 1.909.399 3.304 1.196 4.184.797.88 2.083 1.32 3.86 1.32a9.276 9.276 0 0 0 4.283-1.046c1.361-.698 2.482-1.636 3.362-2.814v-18.577h4.781v26.222h-3.86l-.623-3.611c-2.307 2.723-5.262 4.076-8.865 4.059-2.922 0-5.146-.797-6.674-2.391-1.51-1.593-2.266-3.918-2.266-6.972v-17.307h4.806v16.933zM308.082 122.574c1.909 0 3.81.249 5.702.747 1.91.482 3.62 1.162 5.13 2.042l-2.316 5.404c-1.427-.681-2.747-1.17-3.959-1.469a14.163 14.163 0 0 0-3.636-.473c-3.436 0-6.051 1.037-7.844 3.112-1.776 2.076-2.665 5.089-2.665 9.04 0 4.018.889 7.064 2.665 9.139 1.793 2.059 4.408 3.088 7.844 3.088 2.656 0 5.429-.606 8.318-1.818l1.892 5.703c-3.735 1.66-7.479 2.49-11.231 2.49-5.644 0-9.969-1.585-12.974-4.756-3.005-3.188-4.507-7.753-4.507-13.697 0-3.835.697-7.147 2.092-9.936 1.394-2.789 3.403-4.922 6.026-6.4 2.64-1.477 5.794-2.216 9.463-2.216zm23.234 13.149a11.267 11.267 0 0 1 3.909-2.74c1.494-.631 3.13-.946 4.906-.946 2.789 0 4.939.813 6.45 2.44 1.511 1.611 2.266 3.927 2.266 6.948v17.756h-7.645v-17.332c0-1.561-.307-2.69-.921-3.387-.615-.697-1.603-1.046-2.964-1.046a7.206 7.206 0 0 0-3.436.847 6.833 6.833 0 0 0-2.565 2.241v18.677h-7.67v-38.45h7.67v14.992zm34.365-3.786c3.768 0 6.657.93 8.666 2.789 2.009 1.86 3.013 4.558 3.013 8.094v16.361h-6.325l-.872-3.163c-1.095 1.162-2.332 2.05-3.71 2.664-1.361.598-2.822.897-4.383.897-2.756 0-4.947-.714-6.574-2.142-1.611-1.427-2.416-3.345-2.416-5.752 0-2.789 1.171-4.964 3.512-6.524 2.357-1.561 5.644-2.341 9.861-2.341h3.262v-.673c-.1-3.088-1.851-4.631-5.254-4.631-1.162 0-2.507.174-4.034.522-1.528.332-2.906.764-4.134 1.295l-1.619-5.154a30.28 30.28 0 0 1 5.553-1.644c1.943-.398 3.761-.598 5.454-.598zm1.419 15.066c-2.174 0-3.868.374-5.08 1.121-1.195.747-1.793 1.785-1.793 3.113 0 1.095.332 1.934.996 2.515.664.564 1.602.847 2.814.847a7.116 7.116 0 0 0 3.138-.723 7.408 7.408 0 0 0 2.54-1.942v-4.931H367.1zm23.956-10.832c2.358-2.756 5.454-4.134 9.289-4.134 2.789 0 4.939.822 6.45 2.465 1.51 1.627 2.266 3.935 2.266 6.923v17.756h-7.645v-17.332c0-1.561-.307-2.69-.922-3.387-.614-.697-1.602-1.046-2.963-1.046a7.21 7.21 0 0 0-3.437.847 6.838 6.838 0 0 0-2.564 2.241v18.677h-7.67V132.46h6.375l.821 3.711zm35.959-3.96c1.262 0 2.441.183 3.537.548 1.112.349 2.075.863 2.888 1.544l.772-1.843h6.176v26.272c0 3.985-1.229 7.014-3.686 9.09-2.44 2.091-5.769 3.137-9.985 3.137-2.142 0-4.267-.249-6.375-.747-2.109-.481-3.985-1.187-5.628-2.116l2.365-4.981c1.196.648 2.657 1.195 4.383 1.644 1.727.465 3.32.697 4.781.697 2.076 0 3.669-.54 4.782-1.619 1.129-1.062 1.693-2.631 1.693-4.706v-2.814c-2.042 1.942-4.449 2.913-7.222 2.913-3.702 0-6.582-1.137-8.641-3.411-2.058-2.275-3.088-5.47-3.088-9.588 0-4.382 1.171-7.811 3.512-10.284 2.34-2.491 5.586-3.736 9.736-3.736zm1.42 5.08c-2.241 0-3.96.747-5.155 2.242-1.179 1.477-1.768 3.627-1.768 6.449 0 2.524.473 4.466 1.419 5.827.963 1.345 2.341 2.018 4.134 2.018 1.362 0 2.549-.391 3.561-1.171 1.03-.78 1.727-1.834 2.092-3.162v-11.082c-1.295-.747-2.723-1.121-4.283-1.121zm24.703 9.961c.398 4.549 2.739 6.824 7.022 6.824 1.329 0 2.665-.15 4.01-.449 1.344-.315 2.83-.813 4.457-1.494l1.843 4.757c-4.051 1.876-7.794 2.805-11.231 2.789-4.217 0-7.529-1.229-9.936-3.686s-3.611-5.869-3.611-10.235c0-4.349 1.179-7.736 3.536-10.16 2.358-2.44 5.661-3.661 9.911-3.661 7.986 0 11.978 4.524 11.978 13.572v1.743h-17.979zm10.957-4.432c-.216-3.719-1.851-5.578-4.906-5.578-1.693 0-3.03.464-4.009 1.394-.963.913-1.594 2.308-1.893 4.184h10.808z"/>
    <path fill="#D1D1D1" d="M498.809 159.181h-21.391v-36.109h4.905v31.776h16.486v4.333zm15.215-26.721c3.935 0 6.989 1.196 9.164 3.586 2.175 2.374 3.262 5.703 3.262 9.986s-1.087 7.612-3.262 9.986c-2.175 2.374-5.229 3.561-9.164 3.561-3.951 0-7.014-1.187-9.189-3.561-2.175-2.374-3.262-5.703-3.262-9.986s1.087-7.612 3.262-9.986c2.175-2.39 5.238-3.586 9.189-3.586zm0 4.234c-2.457 0-4.333.797-5.628 2.39-1.278 1.594-1.917 3.91-1.917 6.948 0 3.022.639 5.329 1.917 6.923 1.295 1.594 3.171 2.391 5.628 2.391 2.441 0 4.308-.797 5.603-2.391 1.295-1.594 1.943-3.901 1.943-6.923 0-3.021-.648-5.329-1.943-6.923-1.295-1.61-3.162-2.415-5.603-2.415zm29.933-3.935c1.162 0 2.274.166 3.337.498 1.079.316 2.025.764 2.839 1.345l.572-1.644h3.96v26.945c0 3.503-1.121 6.258-3.362 8.267-2.241 2.026-5.296 3.038-9.164 3.038-1.942 0-3.827-.24-5.653-.722-1.809-.465-3.412-1.12-4.806-1.967l1.793-3.835c1.228.681 2.664 1.228 4.308 1.644 1.644.431 3.196.647 4.657.647 2.374 0 4.208-.606 5.503-1.818 1.295-1.195 1.943-2.913 1.943-5.155v-3.785c-2.076 2.241-4.574 3.362-7.496 3.362-3.669 0-6.508-1.137-8.517-3.412-2.008-2.274-3.013-5.503-3.013-9.687 0-4.349 1.137-7.719 3.412-10.11 2.274-2.407 5.503-3.611 9.687-3.611zm.274 3.985c-2.623 0-4.69.871-6.201 2.614-1.511 1.727-2.266 4.101-2.266 7.122 0 2.823.598 5.006 1.793 6.55 1.212 1.544 2.922 2.316 5.13 2.316 1.693 0 3.179-.465 4.457-1.395 1.279-.93 2.192-2.216 2.74-3.86v-11.828c-.781-.482-1.677-.855-2.69-1.121a11.446 11.446 0 0 0-2.963-.398z"/>
    <path fill="#464646" d="M165.794 68.718v159.516L27.695 148.476l138.099-79.758z" filter="url(#filter0_d)"/>
    <path fill="#D1D1D1" d="M46.452 110.294l225.534 8.695-120.294 191.035-105.24-199.73z" filter="url(#filter1_d)"/>
    <path fill="#464646" d="M137.053 124.684l79.732 138.144H57.322l79.731-138.144z" filter="url(#filter2_d)"/>
  </g>
  <defs>
    <filter id="filter0_d" width="140.099" height="161.515" x="25.695" y="68.718" color-interpolation-filters="sRGB" filterUnits="userSpaceOnUse">
      <feFlood flood-opacity="0" result="BackgroundImageFix"/>
      <feColorMatrix in="SourceAlpha" values="0 0 0 0 0 0 0 0 0 0 0 0 0 0 0 0 0 0 127 0"/>
      <feOffset dx="-1" dy="1"/>
      <feGaussianBlur stdDeviation=".5"/>
      <feColorMatrix values="0 0 0 0 0 0 0 0 0 0 0 0 0 0 0 0 0 0 0.25 0"/>
      <feBlend in2="BackgroundImageFix" result="effect1_dropShadow"/>
      <feBlend in="SourceGraphic" in2="effect1_dropShadow" result="shape"/>
    </filter>
    <filter id="filter1_d" width="227.534" height="201.729" x="44.452" y="110.294" color-interpolation-filters="sRGB" filterUnits="userSpaceOnUse">
      <feFlood flood-opacity="0" result="BackgroundImageFix"/>
      <feColorMatrix in="SourceAlpha" values="0 0 0 0 0 0 0 0 0 0 0 0 0 0 0 0 0 0 127 0"/>
      <feOffset dx="-1" dy="1"/>
      <feGaussianBlur stdDeviation=".5"/>
      <feColorMatrix values="0 0 0 0 0 0 0 0 0 0 0 0 0 0 0 0 0 0 0.25 0"/>
      <feBlend in2="BackgroundImageFix" result="effect1_dropShadow"/>
      <feBlend in="SourceGraphic" in2="effect1_dropShadow" result="shape"/>
    </filter>
    <filter id="filter2_d" width="161.463" height="140.144" x="55.322" y="124.684" color-interpolation-filters="sRGB" filterUnits="userSpaceOnUse">
      <feFlood flood-opacity="0" result="BackgroundImageFix"/>
      <feColorMatrix in="SourceAlpha" values="0 0 0 0 0 0 0 0 0 0 0 0 0 0 0 0 0 0 127 0"/>
      <feOffset dx="-1" dy="1"/>
      <feGaussianBlur stdDeviation=".5"/>
      <feColorMatrix values="0 0 0 0 0 0 0 0 0 0 0 0 0 0 0 0 0 0 0.25 0"/>
      <feBlend in2="BackgroundImageFix" result="effect1_dropShadow"/>
      <feBlend in="SourceGraphic" in2="effect1_dropShadow" result="shape"/>
    </filter>
    <clipPath id="clip0">
      <path fill="#fff" d="M0 0h600v359H0z"/>
    </clipPath>
  </defs>
</svg>
