<svg width="212" height="127" viewBox="0 0 212 127" fill="none" xmlns="http://www.w3.org/2000/svg">
<path d="M204.467 24.4685L201.655 22.4453L204.813 21.0218L204.467 24.4685Z" fill="#464646"/>
<path d="M179.854 85.5196L181.374 86.3512L179.894 87.2512L179.854 85.5196Z" fill="#464646"/>
<path d="M132.493 34.1287L131.413 31.7657L134 32.0121L132.493 34.1287Z" fill="#464646"/>
<path d="M112.625 88.1144L113.741 94.9521L107.262 92.4997L112.625 88.1144Z" fill="#464646"/>
<path d="M205.854 66.5196L207.374 67.3512L205.894 68.2512L205.854 66.5196Z" fill="#D1D1D1"/>
<path d="M204.54 36.8621L210.399 40.5597L204.268 43.785L204.54 36.8621Z" fill="#D1D1D1"/>
<path d="M176.144 32.5569L173.333 30.5336L176.491 29.1101L176.144 32.5569Z" fill="#D1D1D1"/>
<path d="M163.339 68.8047L162.131 72.9627L159.134 69.8368L163.339 68.8047Z" fill="#D1D1D1"/>
<path d="M117.689 20.7623L114.174 18.2332L118.121 16.4539L117.689 20.7623Z" fill="#D1D1D1"/>
<path d="M93.2519 32.003L91.143 30.4855L93.5116 29.4179L93.2519 32.003Z" fill="#D1D1D1"/>
<path d="M115.396 60.6748C115.807 60.6748 116.199 60.7334 116.574 60.8506C116.955 60.9619 117.289 61.1201 117.576 61.3252L117.778 60.7451H119.176V70.2549C119.176 71.4912 118.78 72.4639 117.989 73.1729C117.198 73.8877 116.12 74.2451 114.755 74.2451C114.069 74.2451 113.404 74.1602 112.76 73.9902C112.121 73.8262 111.556 73.5947 111.063 73.2959L111.696 71.9424C112.13 72.1826 112.637 72.376 113.217 72.5225C113.797 72.6748 114.345 72.751 114.86 72.751C115.698 72.751 116.346 72.5371 116.803 72.1094C117.26 71.6875 117.488 71.0811 117.488 70.29V68.9541C116.756 69.7451 115.874 70.1406 114.843 70.1406C113.548 70.1406 112.546 69.7393 111.837 68.9365C111.128 68.1338 110.773 66.9941 110.773 65.5176C110.773 63.9824 111.175 62.793 111.978 61.9492C112.78 61.0996 113.92 60.6748 115.396 60.6748ZM115.493 62.0811C114.567 62.0811 113.838 62.3887 113.305 63.0039C112.771 63.6133 112.505 64.4512 112.505 65.5176C112.505 66.5137 112.716 67.2842 113.138 67.8291C113.565 68.374 114.169 68.6465 114.948 68.6465C115.546 68.6465 116.07 68.4824 116.521 68.1543C116.973 67.8262 117.295 67.3721 117.488 66.792V62.6172C117.213 62.4473 116.896 62.3154 116.539 62.2217C116.188 62.1279 115.839 62.0811 115.493 62.0811ZM123.641 66.7217C123.641 67.3955 123.781 67.8877 124.062 68.1982C124.344 68.5088 124.798 68.6641 125.425 68.6641C125.952 68.6641 126.456 68.541 126.937 68.2949C127.417 68.0488 127.812 67.7178 128.123 67.3018V60.7451H129.811V70H128.448L128.229 68.7256C127.414 69.6865 126.371 70.1641 125.1 70.1582C124.068 70.1582 123.283 69.877 122.744 69.3145C122.211 68.752 121.944 67.9316 121.944 66.8535V60.7451H123.641V66.7217ZM134.328 62.0459C134.65 61.5654 135.028 61.2021 135.462 60.9561C135.896 60.71 136.37 60.5869 136.886 60.5869C137.231 60.5869 137.633 60.6514 138.09 60.7803L137.782 62.4414C137.196 62.3242 136.801 62.2627 136.596 62.2568C136.08 62.2568 135.652 62.3535 135.312 62.5469C134.979 62.7402 134.691 63.0537 134.451 63.4873V70H132.764V60.7451H134.117L134.328 62.0459ZM141.113 66.7217C141.113 67.3955 141.254 67.8877 141.535 68.1982C141.816 68.5088 142.271 68.6641 142.897 68.6641C143.425 68.6641 143.929 68.541 144.409 68.2949C144.89 68.0488 145.285 67.7178 145.596 67.3018V60.7451H147.283V70H145.921L145.701 68.7256C144.887 69.6865 143.844 70.1641 142.572 70.1582C141.541 70.1582 140.756 69.877 140.217 69.3145C139.684 68.752 139.417 67.9316 139.417 66.8535V60.7451H141.113V66.7217Z" fill="#464646"/>
<path d="M116.873 43.0801C117.547 43.0801 118.218 43.168 118.886 43.3438C119.56 43.5137 120.163 43.7539 120.696 44.0645L119.879 45.9717C119.375 45.7314 118.909 45.5586 118.481 45.4531C118.06 45.3418 117.632 45.2861 117.198 45.2861C115.985 45.2861 115.062 45.6523 114.43 46.3848C113.803 47.1172 113.489 48.1807 113.489 49.5752C113.489 50.9932 113.803 52.0684 114.43 52.8008C115.062 53.5273 115.985 53.8906 117.198 53.8906C118.136 53.8906 119.114 53.6768 120.134 53.249L120.802 55.2617C119.483 55.8477 118.162 56.1406 116.838 56.1406C114.846 56.1406 113.319 55.5811 112.259 54.4619C111.198 53.3369 110.668 51.7256 110.668 49.6279C110.668 48.2744 110.914 47.1055 111.406 46.1211C111.898 45.1367 112.607 44.3838 113.533 43.8623C114.465 43.3408 115.578 43.0801 116.873 43.0801ZM125.073 47.7207C125.466 47.2988 125.926 46.9766 126.453 46.7539C126.98 46.5312 127.558 46.4199 128.185 46.4199C129.169 46.4199 129.928 46.707 130.461 47.2812C130.994 47.8496 131.261 48.667 131.261 49.7334V56H128.562V49.8828C128.562 49.332 128.454 48.9336 128.237 48.6875C128.021 48.4414 127.672 48.3184 127.191 48.3184C126.758 48.3184 126.354 48.418 125.979 48.6172C125.604 48.8105 125.302 49.0742 125.073 49.4082V56H122.366V42.4297H125.073V47.7207ZM137.202 46.3848C138.532 46.3848 139.552 46.7129 140.261 47.3691C140.97 48.0254 141.324 48.9775 141.324 50.2256V56H139.092L138.784 54.8838C138.397 55.2939 137.961 55.6074 137.475 55.8242C136.994 56.0352 136.479 56.1406 135.928 56.1406C134.955 56.1406 134.182 55.8887 133.607 55.3848C133.039 54.8809 132.755 54.2041 132.755 53.3545C132.755 52.3701 133.168 51.6025 133.994 51.0518C134.826 50.501 135.986 50.2256 137.475 50.2256H138.626V49.9883C138.591 48.8984 137.973 48.3535 136.771 48.3535C136.361 48.3535 135.887 48.415 135.348 48.5381C134.809 48.6553 134.322 48.8076 133.889 48.9951L133.317 47.1758C133.938 46.9238 134.592 46.7305 135.277 46.5957C135.963 46.4551 136.604 46.3848 137.202 46.3848ZM137.703 51.7021C136.936 51.7021 136.338 51.834 135.91 52.0977C135.488 52.3613 135.277 52.7275 135.277 53.1963C135.277 53.583 135.395 53.8789 135.629 54.084C135.863 54.2832 136.194 54.3828 136.622 54.3828C137.009 54.3828 137.378 54.2979 137.729 54.1279C138.087 53.958 138.386 53.7295 138.626 53.4424V51.7021H137.703ZM146.158 47.8789C146.99 46.9062 148.083 46.4199 149.437 46.4199C150.421 46.4199 151.18 46.71 151.713 47.29C152.246 47.8643 152.513 48.6787 152.513 49.7334V56H149.814V49.8828C149.814 49.332 149.706 48.9336 149.489 48.6875C149.272 48.4414 148.924 48.3184 148.443 48.3184C148.01 48.3184 147.605 48.418 147.23 48.6172C146.855 48.8105 146.554 49.0742 146.325 49.4082V56H143.618V46.5693H145.868L146.158 47.8789ZM158.85 46.4814C159.295 46.4814 159.711 46.5459 160.098 46.6748C160.49 46.7979 160.83 46.9795 161.117 47.2197L161.39 46.5693H163.569V55.8418C163.569 57.248 163.136 58.3174 162.269 59.0498C161.407 59.7881 160.232 60.1572 158.744 60.1572C157.988 60.1572 157.238 60.0693 156.494 59.8936C155.75 59.7236 155.088 59.4746 154.508 59.1465L155.343 57.3887C155.765 57.6172 156.28 57.8105 156.89 57.9688C157.499 58.1328 158.062 58.2148 158.577 58.2148C159.31 58.2148 159.872 58.0244 160.265 57.6436C160.663 57.2686 160.862 56.7148 160.862 55.9824V54.9893C160.142 55.6748 159.292 56.0176 158.313 56.0176C157.007 56.0176 155.99 55.6162 155.264 54.8135C154.537 54.0107 154.174 52.8828 154.174 51.4297C154.174 49.8828 154.587 48.6729 155.413 47.7998C156.239 46.9209 157.385 46.4814 158.85 46.4814ZM159.351 48.2744C158.56 48.2744 157.953 48.5381 157.531 49.0654C157.115 49.5869 156.907 50.3457 156.907 51.3418C156.907 52.2324 157.074 52.918 157.408 53.3984C157.748 53.873 158.234 54.1104 158.867 54.1104C159.348 54.1104 159.767 53.9727 160.124 53.6973C160.487 53.4219 160.733 53.0498 160.862 52.5811V48.6699C160.405 48.4062 159.901 48.2744 159.351 48.2744ZM168.069 51.79C168.21 53.3955 169.036 54.1982 170.548 54.1982C171.017 54.1982 171.488 54.1455 171.963 54.04C172.438 53.9287 172.962 53.7529 173.536 53.5127L174.187 55.1914C172.757 55.8535 171.436 56.1816 170.223 56.1758C168.734 56.1758 167.565 55.7422 166.716 54.875C165.866 54.0078 165.441 52.8037 165.441 51.2627C165.441 49.7275 165.857 48.5322 166.689 47.6768C167.521 46.8154 168.688 46.3848 170.188 46.3848C173.006 46.3848 174.415 47.9814 174.415 51.1748V51.79H168.069ZM171.937 50.2256C171.86 48.9131 171.283 48.2568 170.205 48.2568C169.607 48.2568 169.136 48.4209 168.79 48.749C168.45 49.0713 168.228 49.5635 168.122 50.2256H171.937Z" fill="#464646"/>
<path d="M184.188 56H176.639V43.2559H178.37V54.4707H184.188V56ZM189.559 46.5693C190.947 46.5693 192.025 46.9912 192.793 47.835C193.561 48.6729 193.944 49.8477 193.944 51.3594C193.944 52.8711 193.561 54.0459 192.793 54.8838C192.025 55.7217 190.947 56.1406 189.559 56.1406C188.164 56.1406 187.083 55.7217 186.315 54.8838C185.548 54.0459 185.164 52.8711 185.164 51.3594C185.164 49.8477 185.548 48.6729 186.315 47.835C187.083 46.9912 188.164 46.5693 189.559 46.5693ZM189.559 48.0635C188.691 48.0635 188.029 48.3447 187.572 48.9072C187.121 49.4697 186.896 50.2871 186.896 51.3594C186.896 52.4258 187.121 53.2402 187.572 53.8027C188.029 54.3652 188.691 54.6465 189.559 54.6465C190.42 54.6465 191.079 54.3652 191.536 53.8027C191.993 53.2402 192.222 52.4258 192.222 51.3594C192.222 50.293 191.993 49.4785 191.536 48.916C191.079 48.3477 190.42 48.0635 189.559 48.0635ZM200.123 46.6748C200.533 46.6748 200.926 46.7334 201.301 46.8506C201.682 46.9619 202.016 47.1201 202.303 47.3252L202.505 46.7451H203.902V56.2549C203.902 57.4912 203.507 58.4639 202.716 59.1729C201.925 59.8877 200.847 60.2451 199.481 60.2451C198.796 60.2451 198.131 60.1602 197.486 59.9902C196.848 59.8262 196.282 59.5947 195.79 59.2959L196.423 57.9424C196.856 58.1826 197.363 58.376 197.943 58.5225C198.523 58.6748 199.071 58.751 199.587 58.751C200.425 58.751 201.072 58.5371 201.529 58.1094C201.986 57.6875 202.215 57.0811 202.215 56.29V54.9541C201.482 55.7451 200.601 56.1406 199.569 56.1406C198.274 56.1406 197.272 55.7393 196.563 54.9365C195.854 54.1338 195.5 52.9941 195.5 51.5176C195.5 49.9824 195.901 48.793 196.704 47.9492C197.507 47.0996 198.646 46.6748 200.123 46.6748ZM200.22 48.0811C199.294 48.0811 198.564 48.3887 198.031 49.0039C197.498 49.6133 197.231 50.4512 197.231 51.5176C197.231 52.5137 197.442 53.2842 197.864 53.8291C198.292 54.374 198.896 54.6465 199.675 54.6465C200.272 54.6465 200.797 54.4824 201.248 54.1543C201.699 53.8262 202.021 53.3721 202.215 52.792V48.6172C201.939 48.4473 201.623 48.3154 201.266 48.2217C200.914 48.1279 200.565 48.0811 200.22 48.0811Z" fill="#D1D1D1"/>
<g filter="url(#filter0_d)">
<path d="M66.6458 24.2501L66.6458 80.5418L17.8958 52.3959L66.6458 24.2501Z" fill="#464646"/>
</g>
<g filter="url(#filter1_d)">
<path d="M24.517 38.922L104.132 41.9901L61.6676 109.405L24.517 38.922Z" fill="#D1D1D1"/>
</g>
<g filter="url(#filter2_d)">
<path d="M56.5 44L84.6458 92.75H28.3542L56.5 44Z" fill="#464646"/>
</g>
<defs>
<filter id="filter0_d" x="15.8958" y="10.1772" width="75.125" height="72.3646" filterUnits="userSpaceOnUse" color-interpolation-filters="sRGB">
<feFlood flood-opacity="0" result="BackgroundImageFix"/>
<feColorMatrix in="SourceAlpha" type="matrix" values="0 0 0 0 0 0 0 0 0 0 0 0 0 0 0 0 0 0 127 0"/>
<feOffset dx="-1" dy="1"/>
<feGaussianBlur stdDeviation="0.5"/>
<feColorMatrix type="matrix" values="0 0 0 0 0 0 0 0 0 0 0 0 0 0 0 0 0 0 0.25 0"/>
<feBlend mode="normal" in2="BackgroundImageFix" result="effect1_dropShadow"/>
<feBlend mode="normal" in="SourceGraphic" in2="effect1_dropShadow" result="shape"/>
</filter>
<filter id="filter1_d" x="1.28466" y="5.21459" width="102.848" height="106.19" filterUnits="userSpaceOnUse" color-interpolation-filters="sRGB">
<feFlood flood-opacity="0" result="BackgroundImageFix"/>
<feColorMatrix in="SourceAlpha" type="matrix" values="0 0 0 0 0 0 0 0 0 0 0 0 0 0 0 0 0 0 127 0"/>
<feOffset dx="-1" dy="1"/>
<feGaussianBlur stdDeviation="0.5"/>
<feColorMatrix type="matrix" values="0 0 0 0 0 0 0 0 0 0 0 0 0 0 0 0 0 0 0.25 0"/>
<feBlend mode="normal" in2="BackgroundImageFix" result="effect1_dropShadow"/>
<feBlend mode="normal" in="SourceGraphic" in2="effect1_dropShadow" result="shape"/>
</filter>
<filter id="filter2_d" x="26.3542" y="44" width="58.2917" height="50.75" filterUnits="userSpaceOnUse" color-interpolation-filters="sRGB">
<feFlood flood-opacity="0" result="BackgroundImageFix"/>
<feColorMatrix in="SourceAlpha" type="matrix" values="0 0 0 0 0 0 0 0 0 0 0 0 0 0 0 0 0 0 127 0"/>
<feOffset dx="-1" dy="1"/>
<feGaussianBlur stdDeviation="0.5"/>
<feColorMatrix type="matrix" values="0 0 0 0 0 0 0 0 0 0 0 0 0 0 0 0 0 0 0.25 0"/>
<feBlend mode="normal" in2="BackgroundImageFix" result="effect1_dropShadow"/>
<feBlend mode="normal" in="SourceGraphic" in2="effect1_dropShadow" result="shape"/>
</filter>
</defs>
</svg>
