<svg width="600" height="359" viewBox="0 0 600 359" fill="none" xmlns="http://www.w3.org/2000/svg">
<g clip-path="url(#clip0)">
<path d="M556.214 69.3372L548.249 63.6038L557.195 59.57L556.214 69.3372Z" fill="#464646"/>
<path d="M486.491 242.339L490.795 244.696L486.603 247.246L486.491 242.339Z" fill="#464646"/>
<path d="M352.327 96.7116L349.268 90.0154L356.595 90.7136L352.327 96.7116Z" fill="#464646"/>
<path d="M296.045 249.692L299.206 269.069L280.851 262.119L296.045 249.692Z" fill="#464646"/>
<path d="M560.145 188.498L564.449 190.855L560.256 193.405L560.145 188.498Z" fill="#D1D1D1"/>
<path d="M556.422 104.457L573.019 114.935L555.649 124.075L556.422 104.457Z" fill="#D1D1D1"/>
<path d="M475.982 92.2573L468.017 86.5239L476.963 82.4902L475.982 92.2573Z" fill="#D1D1D1"/>
<path d="M439.708 194.974L436.284 206.757L427.795 197.899L439.708 194.974Z" fill="#D1D1D1"/>
<path d="M310.388 58.8348L300.432 51.6681L311.614 46.6259L310.388 58.8348Z" fill="#D1D1D1"/>
<path d="M241.164 90.6878L235.19 86.3878L241.9 83.3624L241.164 90.6878Z" fill="#D1D1D1"/>
<path d="M303.898 172.431C305.06 172.431 306.173 172.597 307.235 172.929C308.314 173.245 309.26 173.693 310.074 174.274L310.647 172.631H314.606V199.575C314.606 203.078 313.486 205.834 311.244 207.842C309.003 209.868 305.948 210.881 302.08 210.881C300.138 210.881 298.254 210.64 296.427 210.158C294.618 209.694 293.016 209.038 291.621 208.191L293.414 204.356C294.643 205.037 296.079 205.585 297.722 206C299.366 206.431 300.918 206.647 302.379 206.647C304.753 206.647 306.588 206.041 307.883 204.829C309.177 203.634 309.825 201.916 309.825 199.675V195.889C307.75 198.131 305.251 199.251 302.329 199.251C298.66 199.251 295.822 198.114 293.813 195.84C291.804 193.565 290.8 190.336 290.8 186.153C290.8 181.803 291.937 178.433 294.211 176.042C296.486 173.635 299.715 172.431 303.898 172.431ZM304.172 176.416C301.549 176.416 299.482 177.287 297.971 179.03C296.461 180.757 295.705 183.131 295.705 186.153C295.705 188.975 296.303 191.158 297.498 192.702C298.71 194.246 300.42 195.018 302.628 195.018C304.322 195.018 305.807 194.553 307.086 193.623C308.364 192.694 309.277 191.407 309.825 189.763V177.935C309.045 177.453 308.148 177.08 307.135 176.814C306.139 176.549 305.152 176.416 304.172 176.416ZM327.257 189.564C327.257 191.473 327.655 192.868 328.452 193.748C329.249 194.628 330.535 195.068 332.312 195.068C333.806 195.068 335.234 194.719 336.595 194.022C337.956 193.324 339.077 192.386 339.957 191.208V172.631H344.738V198.853H340.878L340.256 195.242C337.948 197.965 334.993 199.318 331.39 199.301C328.469 199.301 326.244 198.504 324.717 196.91C323.206 195.317 322.45 192.992 322.45 189.938V172.631H327.257V189.564ZM357.538 176.316C358.451 174.955 359.522 173.926 360.75 173.228C361.979 172.531 363.323 172.182 364.784 172.182C365.764 172.182 366.901 172.365 368.196 172.73L367.324 177.437C365.664 177.105 364.544 176.93 363.963 176.914C362.502 176.914 361.29 177.188 360.327 177.736C359.381 178.283 358.567 179.172 357.886 180.4V198.853H353.105V172.631H356.94L357.538 176.316ZM376.762 189.564C376.762 191.473 377.161 192.868 377.958 193.748C378.755 194.628 380.041 195.068 381.818 195.068C383.312 195.068 384.74 194.719 386.101 194.022C387.462 193.324 388.583 192.386 389.463 191.208V172.631H394.244V198.853H390.384L389.761 195.242C387.454 197.965 384.499 199.318 380.896 199.301C377.974 199.301 375.75 198.504 374.222 196.91C372.712 195.317 371.956 192.992 371.956 189.938V172.631H376.762V189.564Z" fill="#464646"/>
<path d="M308.082 122.574C309.991 122.574 311.892 122.823 313.784 123.321C315.694 123.803 317.404 124.483 318.914 125.363L316.598 130.767C315.171 130.086 313.851 129.597 312.639 129.298C311.444 128.982 310.232 128.825 309.003 128.825C305.567 128.825 302.952 129.862 301.159 131.937C299.383 134.013 298.494 137.026 298.494 140.977C298.494 144.995 299.383 148.041 301.159 150.116C302.952 152.175 305.567 153.204 309.003 153.204C311.659 153.204 314.432 152.598 317.321 151.386L319.213 157.089C315.478 158.749 311.734 159.579 307.982 159.579C302.338 159.579 298.013 157.994 295.008 154.823C292.003 151.635 290.501 147.07 290.501 141.126C290.501 137.291 291.198 133.979 292.593 131.19C293.987 128.401 295.996 126.268 298.619 124.79C301.259 123.313 304.413 122.574 308.082 122.574ZM331.316 135.723C332.428 134.527 333.731 133.614 335.225 132.983C336.719 132.352 338.355 132.037 340.131 132.037C342.92 132.037 345.07 132.85 346.581 134.477C348.092 136.088 348.847 138.404 348.847 141.425V159.181H341.202V141.849C341.202 140.288 340.895 139.159 340.281 138.462C339.666 137.765 338.678 137.416 337.317 137.416C336.089 137.416 334.943 137.698 333.881 138.263C332.818 138.81 331.963 139.557 331.316 140.504V159.181H323.646V120.731H331.316V135.723ZM365.681 131.937C369.449 131.937 372.338 132.867 374.347 134.726C376.356 136.586 377.36 139.284 377.36 142.82V159.181H371.035L370.163 156.018C369.068 157.18 367.831 158.068 366.453 158.682C365.092 159.28 363.631 159.579 362.07 159.579C359.314 159.579 357.123 158.865 355.496 157.437C353.885 156.01 353.08 154.092 353.08 151.685C353.08 148.896 354.251 146.721 356.592 145.161C358.949 143.6 362.236 142.82 366.453 142.82H369.715V142.147C369.615 139.059 367.864 137.516 364.461 137.516C363.299 137.516 361.954 137.69 360.427 138.038C358.899 138.37 357.521 138.802 356.293 139.333L354.674 134.179C356.434 133.465 358.285 132.917 360.227 132.535C362.17 132.137 363.988 131.937 365.681 131.937ZM367.1 147.003C364.926 147.003 363.232 147.377 362.02 148.124C360.825 148.871 360.227 149.909 360.227 151.237C360.227 152.332 360.559 153.171 361.223 153.752C361.887 154.316 362.825 154.599 364.037 154.599C365.133 154.599 366.179 154.358 367.175 153.876C368.188 153.395 369.034 152.747 369.715 151.934V147.003H367.1ZM391.056 136.171C393.414 133.415 396.51 132.037 400.345 132.037C403.134 132.037 405.284 132.859 406.795 134.502C408.305 136.129 409.061 138.437 409.061 141.425V159.181H401.416V141.849C401.416 140.288 401.109 139.159 400.494 138.462C399.88 137.765 398.892 137.416 397.531 137.416C396.302 137.416 395.157 137.698 394.094 138.263C393.032 138.81 392.177 139.557 391.53 140.504V159.181H383.86V132.46H390.235L391.056 136.171ZM427.015 132.211C428.277 132.211 429.456 132.394 430.552 132.759C431.664 133.108 432.627 133.622 433.44 134.303L434.212 132.46H440.388V158.732C440.388 162.717 439.159 165.746 436.702 167.822C434.262 169.913 430.933 170.959 426.717 170.959C424.575 170.959 422.45 170.71 420.342 170.212C418.233 169.731 416.357 169.025 414.714 168.096L417.079 163.115C418.275 163.763 419.736 164.31 421.462 164.759C423.189 165.224 424.782 165.456 426.243 165.456C428.319 165.456 429.912 164.916 431.025 163.837C432.154 162.775 432.718 161.206 432.718 159.131V156.317C430.676 158.259 428.269 159.23 425.496 159.23C421.794 159.23 418.914 158.093 416.855 155.819C414.797 153.544 413.767 150.349 413.767 146.231C413.767 141.849 414.938 138.42 417.279 135.947C419.619 133.456 422.865 132.211 427.015 132.211ZM428.435 137.291C426.194 137.291 424.475 138.038 423.28 139.533C422.101 141.01 421.512 143.16 421.512 145.982C421.512 148.506 421.985 150.448 422.931 151.809C423.894 153.154 425.272 153.827 427.065 153.827C428.427 153.827 429.614 153.436 430.626 152.656C431.656 151.876 432.353 150.822 432.718 149.494V138.412C431.423 137.665 429.995 137.291 428.435 137.291ZM453.138 147.252C453.536 151.801 455.877 154.076 460.16 154.076C461.489 154.076 462.825 153.926 464.17 153.627C465.514 153.312 467 152.814 468.627 152.133L470.47 156.89C466.419 158.766 462.676 159.695 459.239 159.679C455.022 159.679 451.71 158.45 449.303 155.993C446.896 153.536 445.692 150.124 445.692 145.758C445.692 141.409 446.871 138.022 449.228 135.598C451.586 133.158 454.889 131.937 459.139 131.937C467.125 131.937 471.117 136.461 471.117 145.509V147.252H453.138ZM464.095 142.82C463.879 139.101 462.244 137.242 459.189 137.242C457.496 137.242 456.159 137.706 455.18 138.636C454.217 139.549 453.586 140.944 453.287 142.82H464.095Z" fill="#464646"/>
<path d="M498.809 159.181H477.418V123.072H482.323V154.848H498.809V159.181ZM514.024 132.46C517.959 132.46 521.013 133.656 523.188 136.046C525.363 138.42 526.45 141.749 526.45 146.032C526.45 150.315 525.363 153.644 523.188 156.018C521.013 158.392 517.959 159.579 514.024 159.579C510.073 159.579 507.01 158.392 504.835 156.018C502.66 153.644 501.573 150.315 501.573 146.032C501.573 141.749 502.66 138.42 504.835 136.046C507.01 133.656 510.073 132.46 514.024 132.46ZM514.024 136.694C511.567 136.694 509.691 137.491 508.396 139.084C507.118 140.678 506.479 142.994 506.479 146.032C506.479 149.054 507.118 151.361 508.396 152.955C509.691 154.549 511.567 155.346 514.024 155.346C516.465 155.346 518.332 154.549 519.627 152.955C520.922 151.361 521.57 149.054 521.57 146.032C521.57 143.011 520.922 140.703 519.627 139.109C518.332 137.499 516.465 136.694 514.024 136.694ZM543.957 132.759C545.119 132.759 546.231 132.925 547.294 133.257C548.373 133.573 549.319 134.021 550.133 134.602L550.705 132.958H554.665V159.903C554.665 163.406 553.544 166.161 551.303 168.17C549.062 170.196 546.007 171.208 542.139 171.208C540.197 171.208 538.312 170.968 536.486 170.486C534.677 170.021 533.074 169.366 531.68 168.519L533.473 164.684C534.701 165.365 536.137 165.912 537.781 166.328C539.425 166.759 540.977 166.975 542.438 166.975C544.812 166.975 546.646 166.369 547.941 165.157C549.236 163.962 549.884 162.244 549.884 160.002V156.217C547.808 158.458 545.31 159.579 542.388 159.579C538.719 159.579 535.88 158.442 533.871 156.167C531.863 153.893 530.858 150.664 530.858 146.48C530.858 142.131 531.995 138.761 534.27 136.37C536.544 133.963 539.773 132.759 543.957 132.759ZM544.231 136.744C541.608 136.744 539.541 137.615 538.03 139.358C536.519 141.085 535.764 143.459 535.764 146.48C535.764 149.303 536.362 151.486 537.557 153.03C538.769 154.574 540.479 155.346 542.687 155.346C544.38 155.346 545.866 154.881 547.144 153.951C548.423 153.021 549.336 151.735 549.884 150.091V138.263C549.103 137.781 548.207 137.408 547.194 137.142C546.198 136.876 545.21 136.744 544.231 136.744Z" fill="#D1D1D1"/>
<g filter="url(#filter0_d)">
<path d="M165.794 68.7182L165.794 228.234L27.6952 148.476L165.794 68.7182Z" fill="#464646"/>
</g>
<g filter="url(#filter1_d)">
<path d="M46.4518 110.294L271.986 118.989L151.692 310.024L46.4518 110.294Z" fill="#D1D1D1"/>
</g>
<g filter="url(#filter2_d)">
<path d="M137.053 124.684L216.785 262.828H57.3218L137.053 124.684Z" fill="#464646"/>
</g>
</g>
<defs>
<filter id="filter0_d" x="25.6953" y="68.7182" width="140.099" height="161.515" filterUnits="userSpaceOnUse" color-interpolation-filters="sRGB">
<feFlood flood-opacity="0" result="BackgroundImageFix"/>
<feColorMatrix in="SourceAlpha" type="matrix" values="0 0 0 0 0 0 0 0 0 0 0 0 0 0 0 0 0 0 127 0"/>
<feOffset dx="-1" dy="1"/>
<feGaussianBlur stdDeviation="0.5"/>
<feColorMatrix type="matrix" values="0 0 0 0 0 0 0 0 0 0 0 0 0 0 0 0 0 0 0.25 0"/>
<feBlend mode="normal" in2="BackgroundImageFix" result="effect1_dropShadow"/>
<feBlend mode="normal" in="SourceGraphic" in2="effect1_dropShadow" result="shape"/>
</filter>
<filter id="filter1_d" x="44.4519" y="110.294" width="227.534" height="201.729" filterUnits="userSpaceOnUse" color-interpolation-filters="sRGB">
<feFlood flood-opacity="0" result="BackgroundImageFix"/>
<feColorMatrix in="SourceAlpha" type="matrix" values="0 0 0 0 0 0 0 0 0 0 0 0 0 0 0 0 0 0 127 0"/>
<feOffset dx="-1" dy="1"/>
<feGaussianBlur stdDeviation="0.5"/>
<feColorMatrix type="matrix" values="0 0 0 0 0 0 0 0 0 0 0 0 0 0 0 0 0 0 0.25 0"/>
<feBlend mode="normal" in2="BackgroundImageFix" result="effect1_dropShadow"/>
<feBlend mode="normal" in="SourceGraphic" in2="effect1_dropShadow" result="shape"/>
</filter>
<filter id="filter2_d" x="55.3218" y="124.684" width="161.463" height="140.144" filterUnits="userSpaceOnUse" color-interpolation-filters="sRGB">
<feFlood flood-opacity="0" result="BackgroundImageFix"/>
<feColorMatrix in="SourceAlpha" type="matrix" values="0 0 0 0 0 0 0 0 0 0 0 0 0 0 0 0 0 0 127 0"/>
<feOffset dx="-1" dy="1"/>
<feGaussianBlur stdDeviation="0.5"/>
<feColorMatrix type="matrix" values="0 0 0 0 0 0 0 0 0 0 0 0 0 0 0 0 0 0 0.25 0"/>
<feBlend mode="normal" in2="BackgroundImageFix" result="effect1_dropShadow"/>
<feBlend mode="normal" in="SourceGraphic" in2="effect1_dropShadow" result="shape"/>
</filter>
<clipPath id="clip0">
<rect width="600" height="359" fill="white"/>
</clipPath>
</defs>
</svg>
