<svg xmlns="http://www.w3.org/2000/svg" width="212" height="127" fill="none">
  <path fill="#464646" d="M204.467 24.468l-2.812-2.023 3.158-1.423-.346 3.447zM179.854 85.52l1.52.831-1.48.9-.04-1.731zM132.493 34.129l-1.08-2.363 2.587.246-1.507 2.117zM112.625 88.114l1.116 6.838-6.479-2.452 5.363-4.386z"/>
  <path fill="#D1D1D1" d="M205.854 66.52l1.52.831-1.48.9-.04-1.731zM204.54 36.862l5.859 3.698-6.131 3.225.272-6.923zM176.144 32.557l-2.811-2.023 3.158-1.424-.347 3.447zM163.339 68.805l-1.208 4.158-2.997-3.126 4.205-1.032zM117.689 20.762l-3.515-2.529 3.947-1.78-.432 4.31zM93.252 32.003l-2.109-1.518 2.369-1.067-.26 2.585z"/>
  <path fill="#464646" d="M115.396 60.675c.411 0 .803.058 1.178.176.381.11.715.27 1.002.474l.202-.58h1.398v9.51c0 1.236-.396 2.209-1.187 2.918-.791.715-1.869 1.072-3.234 1.072a7.783 7.783 0 0 1-1.995-.255 6.25 6.25 0 0 1-1.697-.694l.633-1.354c.434.24.941.434 1.521.58.58.153 1.128.229 1.643.229.838 0 1.486-.214 1.943-.642.457-.421.685-1.028.685-1.819v-1.336c-.732.791-1.614 1.187-2.645 1.187-1.295 0-2.297-.402-3.006-1.205-.709-.802-1.064-1.942-1.064-3.418 0-1.536.402-2.725 1.205-3.569.802-.85 1.942-1.274 3.418-1.274zm.097 1.406c-.926 0-1.655.308-2.188.923-.534.61-.8 1.447-.8 2.514 0 .996.211 1.766.633 2.311.427.545 1.031.818 1.81.818.598 0 1.122-.165 1.573-.493.452-.328.774-.782.967-1.362v-4.175a3.474 3.474 0 0 0-.949-.395 4.04 4.04 0 0 0-1.046-.14zm8.148 4.64c0 .674.14 1.167.421 1.477.282.31.736.466 1.363.466.527 0 1.031-.123 1.512-.37.48-.245.875-.576 1.186-.992v-6.557h1.688V70h-1.363l-.219-1.274c-.815.96-1.858 1.438-3.129 1.432-1.032 0-1.817-.281-2.356-.844-.533-.562-.8-1.382-.8-2.46v-6.109h1.697v5.977zm10.687-4.675c.322-.48.7-.844 1.134-1.09.434-.246.908-.37 1.424-.37.345 0 .747.065 1.204.194l-.308 1.661c-.586-.117-.981-.178-1.186-.184-.516 0-.944.096-1.284.29-.333.193-.621.507-.861.94V70h-1.687v-9.255h1.353l.211 1.3zm6.785 4.676c0 .674.141 1.166.422 1.476.281.31.736.466 1.362.466a3.27 3.27 0 0 0 1.512-.37 3.38 3.38 0 0 0 1.187-.992v-6.557h1.687V70h-1.362l-.22-1.274c-.814.96-1.857 1.438-3.129 1.432-1.031 0-1.816-.281-2.355-.844-.533-.562-.8-1.382-.8-2.46v-6.109h1.696v5.977zM116.873 43.08a7.88 7.88 0 0 1 2.013.264c.674.17 1.277.41 1.81.72l-.817 1.908a7.407 7.407 0 0 0-1.398-.519 5.001 5.001 0 0 0-1.283-.167c-1.213 0-2.136.366-2.768 1.099-.627.732-.941 1.796-.941 3.19 0 1.418.314 2.493.941 3.226.632.726 1.555 1.09 2.768 1.09.938 0 1.916-.214 2.936-.642l.668 2.013c-1.319.586-2.64.879-3.964.879-1.992 0-3.519-.56-4.579-1.68-1.061-1.124-1.591-2.735-1.591-4.833 0-1.354.246-2.523.738-3.507s1.201-1.737 2.127-2.259c.932-.521 2.045-.782 3.34-.782zm8.2 4.64a3.988 3.988 0 0 1 1.38-.966 4.407 4.407 0 0 1 1.732-.334c.984 0 1.743.287 2.276.861.533.569.8 1.386.8 2.452V56h-2.699v-6.117c0-.551-.108-.95-.325-1.196-.216-.246-.565-.369-1.046-.369-.433 0-.837.1-1.212.3a2.424 2.424 0 0 0-.906.79V56h-2.707V42.43h2.707v5.29zm12.129-1.335c1.33 0 2.35.328 3.059.984.709.656 1.063 1.608 1.063 2.857V56h-2.232l-.308-1.116c-.387.41-.823.723-1.309.94a3.806 3.806 0 0 1-1.547.317c-.973 0-1.746-.252-2.321-.756-.568-.504-.852-1.18-.852-2.03 0-.985.413-1.752 1.239-2.303.832-.551 1.992-.826 3.481-.826h1.151v-.238c-.035-1.09-.653-1.635-1.855-1.635-.41 0-.884.062-1.423.185a7.895 7.895 0 0 0-1.459.457l-.572-1.82a10.692 10.692 0 0 1 1.96-.58 9.612 9.612 0 0 1 1.925-.21zm.501 5.317c-.767 0-1.365.132-1.793.396-.422.263-.633.63-.633 1.098 0 .387.118.683.352.888.234.2.565.299.993.299.387 0 .756-.085 1.107-.255.358-.17.657-.398.897-.686v-1.74h-.923zm8.455-3.823c.832-.973 1.925-1.46 3.279-1.46.984 0 1.743.291 2.276.871.533.574.8 1.389.8 2.443V56h-2.699v-6.117c0-.551-.108-.95-.325-1.196-.217-.246-.565-.369-1.046-.369-.433 0-.838.1-1.213.3a2.421 2.421 0 0 0-.905.79V56h-2.707v-9.43h2.25l.29 1.309zm12.692-1.398c.445 0 .861.065 1.248.194a2.94 2.94 0 0 1 1.019.545l.273-.65h2.179v9.272c0 1.406-.433 2.475-1.3 3.208-.862.738-2.037 1.107-3.525 1.107a9.758 9.758 0 0 1-2.25-.263 7.325 7.325 0 0 1-1.986-.747l.835-1.758c.422.228.937.421 1.547.58a6.525 6.525 0 0 0 1.687.246c.733 0 1.295-.19 1.688-.571.398-.375.597-.93.597-1.662v-.993c-.72.686-1.57 1.029-2.549 1.029-1.306 0-2.323-.402-3.049-1.205-.727-.802-1.09-1.93-1.09-3.383 0-1.547.413-2.757 1.239-3.63.826-.88 1.972-1.319 3.437-1.319zm.501 1.793c-.791 0-1.398.264-1.82.791-.416.522-.624 1.28-.624 2.277 0 .89.167 1.576.501 2.056.34.475.826.712 1.459.712.481 0 .9-.137 1.257-.413.363-.275.609-.647.738-1.116V48.67a2.97 2.97 0 0 0-1.511-.396zm8.718 3.516c.141 1.605.967 2.408 2.479 2.408.469 0 .94-.053 1.415-.158a10.09 10.09 0 0 0 1.573-.527l.651 1.678c-1.43.662-2.751.99-3.964.985-1.489 0-2.658-.434-3.507-1.301-.85-.867-1.275-2.071-1.275-3.612 0-1.535.416-2.73 1.248-3.586.832-.862 1.999-1.292 3.499-1.292 2.818 0 4.227 1.596 4.227 4.79v.615h-6.346zm3.868-1.564c-.077-1.313-.654-1.97-1.732-1.97-.598 0-1.069.165-1.415.493-.34.322-.562.814-.668 1.477h3.815z"/>
  <path fill="#D1D1D1" d="M184.188 56h-7.549V43.256h1.731V54.47h5.818V56zm5.371-9.43c1.388 0 2.466.421 3.234 1.265.768.838 1.151 2.013 1.151 3.524 0 1.512-.383 2.687-1.151 3.525-.768.838-1.846 1.257-3.234 1.257-1.395 0-2.476-.42-3.244-1.257-.767-.838-1.151-2.013-1.151-3.525 0-1.511.384-2.686 1.151-3.524.768-.844 1.849-1.266 3.244-1.266zm0 1.493c-.868 0-1.53.282-1.987.844-.451.563-.676 1.38-.676 2.452 0 1.067.225 1.881.676 2.444.457.562 1.119.844 1.987.844.861 0 1.52-.282 1.977-.844.457-.563.686-1.377.686-2.444 0-1.066-.229-1.88-.686-2.443-.457-.568-1.116-.852-1.977-.852zm10.564-1.388c.41 0 .803.058 1.178.176.381.11.715.27 1.002.474l.202-.58h1.397v9.51c0 1.236-.395 2.209-1.186 2.918-.791.715-1.869 1.072-3.235 1.072-.685 0-1.35-.085-1.995-.255a6.244 6.244 0 0 1-1.696-.694l.633-1.354c.433.24.94.434 1.52.58.58.153 1.128.229 1.644.229.838 0 1.485-.214 1.942-.642.457-.422.686-1.028.686-1.819v-1.336c-.733.791-1.614 1.187-2.646 1.187-1.295 0-2.297-.402-3.006-1.204-.709-.803-1.063-1.943-1.063-3.42 0-1.535.401-2.724 1.204-3.568.803-.85 1.942-1.274 3.419-1.274zm.097 1.406c-.926 0-1.656.308-2.189.923-.533.61-.8 1.447-.8 2.514 0 .996.211 1.766.633 2.311.428.545 1.032.818 1.811.818.597 0 1.122-.165 1.573-.493.451-.328.773-.782.967-1.362v-4.175a3.487 3.487 0 0 0-.949-.395 4.05 4.05 0 0 0-1.046-.14z"/>
  <g filter="url(#filter0_d)">
    <path fill="#464646" d="M66.646 24.25v56.292l-48.75-28.146 48.75-28.146z"/>
    <path stroke="#464646" stroke-opacity=".1" stroke-width=".5" d="M66.646 24.25v56.292l-48.75-28.146 48.75-28.146z"/>
  </g>
  <g filter="url(#filter1_d)">
    <path fill="#D1D1D1" d="M24.517 38.922l79.615 3.068-42.464 67.415-37.151-70.483z"/>
    <path stroke="#464646" stroke-opacity=".1" stroke-width=".5" d="M24.517 38.922l79.615 3.068-42.464 67.415-37.151-70.483z"/>
  </g>
  <g filter="url(#filter2_d)">
    <path fill="#464646" d="M56.5 44l28.146 48.75H28.354L56.5 44z"/>
    <path stroke="#464646" stroke-opacity=".1" stroke-width=".5" d="M56.5 44l28.146 48.75H28.354L56.5 44z"/>
  </g>
  <defs>
    <filter id="filter0_d" width="51.5" height="59.158" x="16.396" y="22.817" color-interpolation-filters="sRGB" filterUnits="userSpaceOnUse">
      <feFlood flood-opacity="0" result="BackgroundImageFix"/>
      <feColorMatrix in="SourceAlpha" values="0 0 0 0 0 0 0 0 0 0 0 0 0 0 0 0 0 0 127 0"/>
      <feOffset/>
      <feGaussianBlur stdDeviation=".5"/>
      <feColorMatrix values="0 0 0 0 0 0 0 0 0 0 0 0 0 0 0 0 0 0 0.3 0"/>
      <feBlend in2="BackgroundImageFix" result="effect1_dropShadow"/>
      <feBlend in="SourceGraphic" in2="effect1_dropShadow" result="shape"/>
    </filter>
    <filter id="filter1_d" width="82.481" height="73.249" x="23.094" y="37.656" color-interpolation-filters="sRGB" filterUnits="userSpaceOnUse">
      <feFlood flood-opacity="0" result="BackgroundImageFix"/>
      <feColorMatrix in="SourceAlpha" values="0 0 0 0 0 0 0 0 0 0 0 0 0 0 0 0 0 0 127 0"/>
      <feOffset/>
      <feGaussianBlur stdDeviation=".5"/>
      <feColorMatrix values="0 0 0 0 0 0 0 0 0 0 0 0 0 0 0 0 0 0 0.3 0"/>
      <feBlend in2="BackgroundImageFix" result="effect1_dropShadow"/>
      <feBlend in="SourceGraphic" in2="effect1_dropShadow" result="shape"/>
    </filter>
    <filter id="filter2_d" width="59.158" height="51.5" x="26.921" y="42.5" color-interpolation-filters="sRGB" filterUnits="userSpaceOnUse">
      <feFlood flood-opacity="0" result="BackgroundImageFix"/>
      <feColorMatrix in="SourceAlpha" values="0 0 0 0 0 0 0 0 0 0 0 0 0 0 0 0 0 0 127 0"/>
      <feOffset/>
      <feGaussianBlur stdDeviation=".5"/>
      <feColorMatrix values="0 0 0 0 0 0 0 0 0 0 0 0 0 0 0 0 0 0 0.3 0"/>
      <feBlend in2="BackgroundImageFix" result="effect1_dropShadow"/>
      <feBlend in="SourceGraphic" in2="effect1_dropShadow" result="shape"/>
    </filter>
  </defs>
</svg>
